# xmcd
#
# Track frame offsets: 
#        150
#        12435
#        26415
#        37683
#        52009
#        63877
#        78448
#        92554
#        111849
#        125684
#        136935
#        148895
#        163290
#        178421
#        189563
#        203188
#        216995
#        228608
#        240209
#        256053
#
# Disc length: 3597 seconds
#
# Revision: 1
# Processed by: cddbd v1.5.2PL0 Copyright (c) Steve Scherf et al.
# Submitted via: ExactAudioCopyFreeDBPlugin 1.0
#
DISCID=1c0e0b14
DTITLE=Cole Porter - Easy To Love [Disc 1]
DYEAR=2005
DGENRE=Jazz
TTITLE0=Les Brown and His Band of Renown - Just One of Those Things
TTITLE1=Bing Crosby and The Andrews Sisters With Vic Schoen - Don't Fenc
TTITLE1=e Me In
TTITLE2=Frances Langford With Jimmy Dorsey and His Orchestra - Rap-Tap O
TTITLE2=n Wood
TTITLE3=Dick Haymes With Charles Dant and His Orchestra - Easy To Love
TTITLE4=Maxine Sullivan With Ellis Larkins Trio - Miss Otis Regrets
TTITLE5=Stan Kenton and His Orchestra - Love For Sale
TTITLE6=Buddy Clark - You'd Be So Nice To Come Home To
TTITLE7=Lee Wiley - I've Got You Under My Skin
TTITLE8=Frank Sinatra - I Concentrate On You
TTITLE9=Dinah Shore - I've Got My Eyes On You
TTITLE10=Gordon MacCrae - So In Love
TTITLE11=Ethel Merman With Fairchild-Carroll and Orchestra - Red, Hot and 
TTITLE11=Blue
TTITLE12=Fred Astaire With Oscar Peterson and Jazz Philharmonic - So Nea
TTITLE12=r and Yet So Far
TTITLE13=Ambrose And His Orchestra - After You - Who
TTITLE14=Mel Tormé and The Mel-Tones With Artie Shaw Orchestra - What Is
TTITLE14=This Thing Called Love?
TTITLE15=Gertrude Lawrence With Ray Noble Orchestra - The Physician
TTITLE16=Benny Goodman and His Orchestra - Ridin' High
TTITLE17=Frances Day - It's D'Lovely
TTITLE18=Anne Shelton With Ambrose and His Orchestra - Begin The Beguine
TTITLE19=Anything Goes
EXTD=YEAR: 2005
EXTT0=
EXTT1=
EXTT2=
EXTT3=
EXTT4=
EXTT5=
EXTT6=
EXTT7=
EXTT8=
EXTT9=
EXTT10=
EXTT11=
EXTT12=
EXTT13=
EXTT14=
EXTT15=
EXTT16=
EXTT17=
EXTT18=
EXTT19=
PLAYORDER=
